<svg width="40" height="40" viewBox="0 0 40 40" fill="none" xmlns="http://www.w3.org/2000/svg">
<circle cx="20" cy="20" r="20" fill="#236EEC"/>
<g clip-path="url(#clip0_2676_24387)">
<path d="M28.3333 15.8337H22.5V14.167H28.3333V15.8337ZM29.7717 24.167C29.4033 25.2478 28.0808 26.667 25.5208 26.667C22.9592 26.667 20.8842 25.2262 20.8842 21.9378C20.8842 18.6795 22.8217 17.0045 25.4392 17.0045C28.0075 17.0045 29.5758 18.4895 29.9183 20.6928C29.9833 21.1145 30.0092 21.6828 29.9975 22.4762H23.3083C23.4167 25.152 26.2108 25.2362 27.1317 24.167H29.7717ZM23.3667 20.8337H27.5042C27.4167 19.5445 26.5575 18.9845 25.44 18.9845C24.2183 18.9845 23.5425 19.6245 23.3667 20.8337ZM15.3883 26.657H10V14.1845H15.7942C20.3575 14.252 20.4442 18.7212 18.0608 19.9395C20.945 20.9895 21.0417 26.657 15.3883 26.657ZM12.5 19.167H15.4867C17.5767 19.167 17.9083 16.667 15.2267 16.667H12.5V19.167ZM15.3258 21.667H12.5V24.1803H15.2842C17.83 24.1803 17.6742 21.667 15.3258 21.667Z" fill="white"/>
</g>
<defs>
<clipPath id="clip0_2676_24387">
<rect width="20" height="20" fill="white" transform="translate(10 10)"/>
</clipPath>
</defs>
</svg>
