<svg width="40" height="40" viewBox="0 0 40 40" fill="none" xmlns="http://www.w3.org/2000/svg">
<circle cx="20" cy="20" r="19.5" fill="#252422" stroke="#252422"/>
<path fill-rule="evenodd" clip-rule="evenodd" d="M28.293 10H11.71C11.2565 10 10.8215 10.1802 10.5008 10.5008C10.1802 10.8215 10 11.2565 10 11.71V28.29C10 28.7435 10.1802 29.1785 10.5008 29.4992C10.8215 29.8198 11.2565 30 11.71 30H28.293C28.746 29.9992 29.1802 29.8187 29.5002 29.4981C29.8203 29.1775 30 28.743 30 28.29V11.71C30 11.257 29.8203 10.8225 29.5002 10.5019C29.1802 10.1813 28.746 10.0008 28.293 10ZM28.673 22.863C28.6719 24.4026 28.0595 25.8787 26.9704 26.9669C25.8813 28.0551 24.4046 28.6663 22.865 28.666H17.148C15.6087 28.666 14.1324 28.0546 13.0438 26.9663C11.9552 25.878 11.3434 24.4018 11.343 22.8625V17.134C11.3429 16.3717 11.493 15.6169 11.7848 14.9126C12.0765 14.2083 12.5041 13.5684 13.0432 13.0295C13.5822 12.4905 14.2222 12.063 14.9265 11.7714C15.6308 11.4798 16.3857 11.3298 17.148 11.33H22.8775C24.4171 11.3303 25.8935 11.9417 26.9825 13.03C28.0715 14.1183 28.6838 15.5944 28.685 17.134L28.672 22.8625L28.673 22.863Z" fill="#F8F8F8"/>
</svg>
