<svg width="40" height="40" viewBox="0 0 40 40" fill="none" xmlns="http://www.w3.org/2000/svg">
<circle cx="20" cy="20" r="20" fill="#0088CC"/>
<g clip-path="url(#clip0_2676_24383)">
<path fill-rule="evenodd" clip-rule="evenodd" d="M23.6524 28.9826C23.9207 29.1726 24.2665 29.2201 24.5749 29.1035C24.8832 28.986 25.1099 28.7226 25.1782 28.4035C25.9024 25.0001 27.659 16.386 28.3182 13.2901C28.3682 13.0568 28.2849 12.8143 28.1015 12.6585C27.9182 12.5026 27.664 12.4576 27.4374 12.5418C23.9432 13.8351 13.1824 17.8726 8.78403 19.5001C8.50486 19.6035 8.3232 19.8718 8.33236 20.166C8.34236 20.461 8.5407 20.7168 8.82653 20.8026C10.799 21.3926 13.3882 22.2135 13.3882 22.2135C13.3882 22.2135 14.5982 25.8676 15.229 27.726C15.3082 27.9593 15.4907 28.1426 15.7315 28.206C15.9715 28.2685 16.2282 28.2026 16.4074 28.0335C17.4207 27.0768 18.9874 25.5976 18.9874 25.5976C18.9874 25.5976 21.964 27.7801 23.6524 28.9826ZM14.4774 21.7518L15.8765 26.3668L16.1874 23.4443C16.1874 23.4443 21.5932 18.5685 24.6749 15.7893C24.7649 15.7076 24.7774 15.571 24.7024 15.4751C24.6282 15.3793 24.4915 15.3568 24.389 15.4218C20.8174 17.7026 14.4774 21.7518 14.4774 21.7518Z" fill="white"/>
</g>
<defs>
<clipPath id="clip0_2676_24383">
<rect width="20" height="20" fill="white" transform="translate(8.33203 10)"/>
</clipPath>
</defs>
</svg>
