<svg width="40" height="40" viewBox="0 0 40 40" fill="none" xmlns="http://www.w3.org/2000/svg">
<circle cx="20" cy="20" r="20" fill="#25D366"/>
<g clip-path="url(#clip0_2676_24379)">
<path d="M10.0469 30L11.4527 24.8642C10.5852 23.3608 10.1294 21.6567 10.1302 19.9092C10.1327 14.4458 14.5785 10 20.041 10C22.6919 10.0008 25.1802 11.0333 27.0519 12.9067C28.9227 14.78 29.9527 17.27 29.9519 19.9183C29.9494 25.3825 25.5035 29.8283 20.041 29.8283C18.3827 29.8275 16.7485 29.4117 15.301 28.6217L10.0469 30ZM15.5444 26.8275C16.941 27.6567 18.2744 28.1533 20.0377 28.1542C24.5777 28.1542 28.276 24.4592 28.2785 19.9167C28.2802 15.365 24.5994 11.675 20.0444 11.6733C15.501 11.6733 11.8052 15.3683 11.8035 19.91C11.8027 21.7642 12.346 23.1525 13.2585 24.605L12.426 27.645L15.5444 26.8275ZM25.0335 22.2742C24.9719 22.1708 24.8069 22.1092 24.5585 21.985C24.311 21.8608 23.0935 21.2617 22.866 21.1792C22.6394 21.0967 22.4744 21.055 22.3085 21.3033C22.1435 21.5508 21.6685 22.1092 21.5244 22.2742C21.3802 22.4392 21.2352 22.46 20.9877 22.3358C20.7402 22.2117 19.9419 21.9508 18.996 21.1067C18.2602 20.45 17.7627 19.6392 17.6185 19.3908C17.4744 19.1433 17.6035 19.0092 17.7269 18.8858C17.8385 18.775 17.9744 18.5967 18.0985 18.4517C18.2244 18.3083 18.2652 18.205 18.3485 18.0392C18.431 17.8742 18.3902 17.7292 18.3277 17.605C18.2652 17.4817 17.7702 16.2625 17.5644 15.7667C17.3627 15.2842 17.1585 15.3492 17.0069 15.3417L16.5319 15.3333C16.3669 15.3333 16.0985 15.395 15.8719 15.6433C15.6452 15.8917 15.0052 16.49 15.0052 17.7092C15.0052 18.9283 15.8927 20.1058 16.016 20.2708C16.1402 20.4358 17.7619 22.9375 20.246 24.01C20.8369 24.265 21.2985 24.4175 21.6577 24.5317C22.251 24.72 22.791 24.6933 23.2177 24.63C23.6935 24.5592 24.6827 24.0308 24.8894 23.4525C25.096 22.8733 25.096 22.3775 25.0335 22.2742Z" fill="white"/>
</g>
<defs>
<clipPath id="clip0_2676_24379">
<rect width="20" height="20" fill="white" transform="translate(10 10)"/>
</clipPath>
</defs>
</svg>
